Coordinates
version=1
nRows=9
nColumns=24
inDegrees=yes

Units are S.I. units (second, meters, Newtons, ...)
Angles are in degrees.

endheader
time	pelvis_tilt	pelvis_list	pelvis_rotation	pelvis_tx	pelvis_ty	pelvis_tz	hip_flexion_r	hip_adduction_r	hip_rotation_r	knee_angle_r	ankle_angle_r	subtalar_angle_r	mtp_angle_r	hip_flexion_l	hip_adduction_l	hip_rotation_l	knee_angle_l	ankle_angle_l	subtalar_angle_l	mtp_angle_l	lumbar_extension	lumbar_bending	lumbar_rotation
      0.82883333	      0.63517040	      4.31804851	     -2.44221315	     -0.41905192	      1.01816457	      0.26484390	     11.05291818	     -0.44356923	      3.20292756	    -19.26359043	      7.45813912	    -11.56817640	      5.24559804	     14.29153236	      2.75427335	     -7.92816578	    -66.39976990	     -0.13164505	    -17.09916128	      3.69401783	     -1.49027137	     -4.24590549	      3.84545219
      0.83300000	      0.64584336	      4.41808192	     -2.63260514	     -0.41397209	      1.01899490	      0.26513622	     10.58687158	     -0.57384409	      3.22556982	    -18.93321421	      7.57956985	    -11.32461311	      5.29260451	     14.79385518	      2.82437477	     -8.12278600	    -65.98632822	      0.19533714	    -16.60896841	      3.73385706	     -1.50509206	     -4.32924803	      4.16772331
      0.83716667	      0.63222592	      4.49923911	     -2.81486955	     -0.40890176	      1.01973461	      0.26542053	     10.14528171	     -0.68440363	      3.24537325	    -18.59998689	      7.69118035	    -11.09000233	      5.34124142	     15.31530717	      2.86622779	     -8.31017894	    -65.54164780	      0.52170364	    -16.09284910	      3.78532063	     -1.49306525	     -4.39014023	      4.47294079
      0.84133333	      0.63441612	      4.59203545	     -3.00314660	     -0.40383143	      1.02048060	      0.26570106	      9.68848605	     -0.81146090	      3.26160293	    -18.26684844	      7.80523117	    -10.84950373	      5.39052312	     15.80101442	      2.91982674	     -8.50190194	    -65.03442768	      0.83301451	    -15.56768294	      3.84524170	     -1.49344830	     -4.46242249	      4.77352816
      0.84550000	      0.63609750	      4.67755933	     -3.19486594	     -0.39878224	      1.02117662	      0.26598597	      9.23570558	     -0.93198596	      3.27696461	    -17.93581894	      7.90697031	    -10.61280207	      5.43787577	     16.27645443	      2.96041490	     -8.69472285	    -64.48750463	      1.13559402	    -15.02631482	      3.91027121	     -1.49722565	     -4.52722906	      5.06727093
      0.84966667	      0.62807338	      4.74683727	     -3.37432313	     -0.39375122	      1.02180326	      0.26625947	      8.78711695	     -1.03516602	      3.29634559	    -17.59389067	      8.02391841	    -10.38038009	      5.49013678	     16.75605260	      2.97954382	     -8.87512550	    -63.91410013	      1.43815989	    -14.49947891	      3.98716313	     -1.49708998	     -4.57902238	      5.37981274
      0.85383333	      0.63560926	      4.82671196	     -3.55842622	     -0.38873572	      1.02242633	      0.26653910	      8.32551120	     -1.15233226	      3.31531925	    -17.25428701	      8.14063916	    -10.14524614	      5.54682742	     17.20227848	      3.01021505	     -9.05653470	    -63.28503993	      1.71817885	    -13.98911261	      4.07534288	     -1.51799953	     -4.64962995	      5.69288588
      0.85800000	      0.62502804	      4.88786450	     -3.73596029	     -0.38372299	      1.02296976	      0.26680776	      7.88121447	     -1.24907904	      3.33259243	    -16.91219168	      8.24541310	     -9.92916810	      5.60309064	     17.65683814	      3.01615841	     -9.23078530	    -62.62738615	      1.99226087	    -13.48314141	      4.16871479	     -1.51281952	     -4.69091673	      5.98770201
      0.86216667	      0.62025355	      4.94530357	     -3.91230442	     -0.37872738	      1.02349134	      0.26707151	      7.43008991	     -1.34308065	      3.35373747	    -16.56590754	      8.34308082	     -9.72689014	      5.65916376	     18.09100062	      3.01763380	     -9.40069887	    -61.92560217	      2.24550529	    -12.99874076	      4.26629863	     -1.51869136	     -4.73239852	      6.27950373
